# Blender v2.77 (sub 0) OBJ File: '3d-chess-pieces.blend'
# www.blender.org
mtllib griffin.mtl
o Griffin_Cylinder.002
v 0.000000 0.375000 0.000000
v 0.000000 0.240553 0.050000
v -0.073159 0.367794 0.000000
v -0.046930 0.235931 0.050000
v -0.143506 0.346455 0.000000
v -0.092056 0.222242 0.050000
v -0.208339 0.311801 0.000000
v -0.133644 0.200013 0.050000
v -0.265165 0.265165 0.000000
v -0.170097 0.170097 0.050000
v -0.311801 0.208339 0.000000
v -0.200013 0.133644 0.050000
v -0.346455 0.143506 0.000000
v -0.222242 0.092056 0.050000
v -0.367794 0.073159 0.000000
v -0.235931 0.046930 0.050000
v -0.375000 0.000000 0.000000
v -0.240553 0.000000 0.050000
v -0.367794 -0.073159 0.000000
v -0.235931 -0.046930 0.050000
v -0.346455 -0.143506 0.000000
v -0.222242 -0.092056 0.050000
v -0.311801 -0.208339 0.000000
v -0.200013 -0.133644 0.050000
v -0.265165 -0.265165 0.000000
v -0.170097 -0.170097 0.050000
v -0.208339 -0.311801 0.000000
v -0.133644 -0.200013 0.050000
v -0.143506 -0.346455 0.000000
v -0.092056 -0.222242 0.050000
v -0.073159 -0.367794 0.000000
v -0.046930 -0.235931 0.050000
v 0.000000 -0.375000 0.000000
v 0.000000 -0.240553 0.050000
v 0.073159 -0.367794 0.000000
v 0.046930 -0.235931 0.050000
v 0.143506 -0.346455 0.000000
v 0.092056 -0.222242 0.050000
v 0.208339 -0.311801 0.000000
v 0.133644 -0.200013 0.050000
v 0.265165 -0.265165 0.000000
v 0.170097 -0.170097 0.050000
v 0.311801 -0.208339 0.000000
v 0.200013 -0.133644 0.050000
v 0.346455 -0.143506 0.000000
v 0.222242 -0.092056 0.050000
v 0.367795 -0.073159 0.000000
v 0.235931 -0.046929 0.050000
v 0.375000 0.000000 0.000000
v 0.240553 0.000000 0.050000
v 0.367794 0.073159 0.000000
v 0.235931 0.046930 0.050000
v 0.346455 0.143507 0.000000
v 0.222242 0.092056 0.050000
v 0.311801 0.208339 0.000000
v 0.200013 0.133645 0.050000
v 0.265165 0.265165 0.000000
v 0.170097 0.170097 0.050000
v 0.208338 0.311801 0.000000
v 0.133644 0.200013 0.050000
v 0.143506 0.346455 0.000000
v 0.092055 0.222242 0.050000
v 0.073158 0.367795 0.000000
v 0.046929 0.235931 0.050000
v -0.175858 -0.099889 0.679662
v -0.202883 -0.099890 0.656322
v -0.252020 -0.099890 0.642810
v -0.232820 -0.100777 0.603366
v -0.199198 -0.099890 0.601043
v -0.093553 -0.099889 0.679662
v -0.050559 -0.099889 0.714058
v -0.051787 -0.099889 0.653866
v -0.034589 -0.099888 0.634211
v -0.023533 -0.099888 0.548221
v -0.197969 -0.099890 0.555592
v -0.238507 -0.099890 0.499084
v -0.253248 -0.099890 0.361501
v -0.209025 -0.099889 0.275511
v 0.063281 -0.099810 0.316791
v 0.028148 -0.097720 0.427075
v 0.110027 -0.097333 0.494697
v 0.350659 -0.096876 0.285278
v 0.278673 -0.099534 0.566587
v 0.157177 -0.102255 0.734689
v 0.063717 -0.100707 0.758343
v 0.018504 -0.099928 0.702176
v 0.032061 -0.100107 0.592281
v 0.219981 -0.100271 0.671879
v 0.236996 -0.097270 0.399622
v 0.045524 -0.093297 0.486511
v 0.326004 -0.098257 0.422406
v 0.293828 -0.097073 0.342450
v -0.251982 -0.100619 0.590379
v -0.175256 0.100101 0.681520
v -0.202281 0.100101 0.658180
v -0.251418 0.100101 0.644668
v -0.232218 0.099213 0.605224
v -0.198596 0.100100 0.602901
v -0.092952 0.100101 0.681520
v -0.049957 0.100102 0.715916
v -0.051185 0.100102 0.655723
v -0.033987 0.100102 0.636069
v -0.022932 0.100102 0.550079
v -0.197368 0.100101 0.557450
v -0.237906 0.100101 0.500942
v -0.252647 0.100101 0.363359
v -0.208423 0.100101 0.277369
v 0.063883 0.100181 0.318649
v 0.028750 0.102271 0.428933
v 0.110629 0.102657 0.496555
v 0.351261 0.103114 0.287136
v 0.279275 0.100456 0.568445
v 0.157779 0.097735 0.736547
v 0.064318 0.099284 0.760201
v 0.019106 0.100062 0.704034
v 0.032663 0.099884 0.594139
v 0.220582 0.099720 0.673737
v 0.237598 0.102721 0.401479
v 0.046125 0.106694 0.488369
v 0.326606 0.101734 0.424264
v 0.294429 0.102917 0.344308
v -0.251381 0.099371 0.592237
v 0.147198 -0.099545 0.238412
v -0.115237 -0.099545 0.238412
v 0.147649 0.100446 0.240270
v -0.114786 0.100446 0.240270
v -0.073159 0.367794 0.050000
v 0.000000 0.375000 0.050000
v -0.143506 0.346455 0.050000
v -0.208339 0.311801 0.050000
v -0.265165 0.265165 0.050000
v -0.311801 0.208339 0.050000
v -0.346455 0.143506 0.050000
v -0.367794 0.073159 0.050000
v -0.375000 0.000000 0.050000
v -0.367794 -0.073159 0.050000
v -0.346455 -0.143506 0.050000
v -0.311801 -0.208339 0.050000
v -0.265165 -0.265165 0.050000
v -0.208339 -0.311801 0.050000
v -0.143506 -0.346455 0.050000
v -0.073159 -0.367794 0.050000
v 0.000000 -0.375000 0.050000
v 0.073159 -0.367794 0.050000
v 0.143506 -0.346455 0.050000
v 0.208339 -0.311801 0.050000
v 0.265165 -0.265165 0.050000
v 0.311801 -0.208339 0.050000
v 0.346455 -0.143506 0.050000
v 0.367795 -0.073159 0.050000
v 0.375000 0.000000 0.050000
v 0.367794 0.073159 0.050000
v 0.346455 0.143507 0.050000
v 0.311801 0.208339 0.050000
v 0.265165 0.265165 0.050000
v 0.208338 0.311801 0.050000
v 0.143506 0.346455 0.050000
v 0.073158 0.367795 0.050000
v -0.038478 0.193441 0.117607
v 0.000000 0.197231 0.117607
v -0.075477 0.182217 0.117607
v -0.109575 0.163991 0.117607
v -0.139463 0.139463 0.117607
v -0.163991 0.109575 0.117607
v -0.182217 0.075477 0.117607
v -0.193441 0.038478 0.117607
v -0.197230 -0.000000 0.117607
v -0.193441 -0.038478 0.117607
v -0.182217 -0.075477 0.117607
v -0.163991 -0.109575 0.117607
v -0.139463 -0.139463 0.117607
v -0.109575 -0.163991 0.117607
v -0.075477 -0.182217 0.117607
v -0.038478 -0.193441 0.117607
v 0.000000 -0.197230 0.117607
v 0.038478 -0.193441 0.117607
v 0.075477 -0.182217 0.117607
v 0.109576 -0.163991 0.117607
v 0.139463 -0.139463 0.117607
v 0.163991 -0.109575 0.117607
v 0.182217 -0.075477 0.117607
v 0.193441 -0.038478 0.117607
v 0.197230 0.000000 0.117607
v 0.193441 0.038478 0.117607
v 0.182217 0.075477 0.117607
v 0.163991 0.109576 0.117607
v 0.139463 0.139463 0.117607
v 0.109575 0.163991 0.117607
v 0.075477 0.182217 0.117607
v 0.038477 0.193441 0.117607
v -0.046930 0.235931 0.117607
v 0.000000 0.240553 0.117607
v -0.092056 0.222242 0.117607
v -0.133644 0.200013 0.117607
v -0.170097 0.170097 0.117607
v -0.200013 0.133644 0.117607
v -0.222242 0.092056 0.117607
v -0.235931 0.046930 0.117607
v -0.240553 0.000000 0.117607
v -0.235931 -0.046930 0.117607
v -0.222242 -0.092056 0.117607
v -0.200013 -0.133644 0.117607
v -0.170097 -0.170097 0.117607
v -0.133644 -0.200013 0.117607
v -0.092056 -0.222242 0.117607
v -0.046930 -0.235931 0.117607
v 0.000000 -0.240553 0.117607
v 0.046930 -0.235931 0.117607
v 0.092056 -0.222242 0.117607
v 0.133644 -0.200013 0.117607
v 0.170097 -0.170097 0.117607
v 0.200013 -0.133644 0.117607
v 0.222242 -0.092056 0.117607
v 0.235931 -0.046929 0.117607
v 0.240553 0.000000 0.117607
v 0.235931 0.046930 0.117607
v 0.222242 0.092056 0.117607
v 0.200013 0.133645 0.117607
v 0.170097 0.170097 0.117607
v 0.133644 0.200013 0.117607
v 0.092055 0.222242 0.117607
v 0.046929 0.235931 0.117607
v -0.038478 0.193441 0.222614
v 0.000000 0.197231 0.222614
v -0.075477 0.182217 0.222614
v -0.109575 0.163991 0.222614
v -0.139463 0.139463 0.222614
v -0.163991 0.109575 0.222614
v -0.182217 0.075477 0.222614
v -0.193441 0.038478 0.222614
v -0.197230 -0.000000 0.222614
v -0.193441 -0.038478 0.222614
v -0.182217 -0.075477 0.222614
v -0.163991 -0.109575 0.222614
v -0.139463 -0.139463 0.222614
v -0.109575 -0.163991 0.222614
v -0.075477 -0.182217 0.222614
v -0.038478 -0.193441 0.222614
v 0.000000 -0.197230 0.222614
v 0.038478 -0.193441 0.222614
v 0.075477 -0.182217 0.222614
v 0.109576 -0.163991 0.222614
v 0.139463 -0.139463 0.222614
v 0.163991 -0.109575 0.222614
v 0.182217 -0.075477 0.222614
v 0.193441 -0.038478 0.222614
v 0.197230 0.000000 0.222614
v 0.193441 0.038478 0.222614
v 0.182217 0.075477 0.222614
v 0.163991 0.109576 0.222614
v 0.139463 0.139463 0.222614
v 0.109575 0.163991 0.222614
v 0.075477 0.182217 0.222614
v 0.038477 0.193441 0.222614
vn 0.098000 -0.995200 0.000000
vn 0.290300 -0.956900 0.000000
vn 0.471400 -0.881900 0.000000
vn 0.634400 -0.773000 0.000000
vn 0.773000 -0.634400 0.000000
vn 0.881900 -0.471400 0.000000
vn 0.956900 -0.290300 0.000000
vn 0.995200 -0.098000 0.000000
vn 0.995200 0.098000 0.000000
vn 0.956900 0.290300 0.000000
vn 0.881900 0.471400 0.000000
vn 0.773000 0.634400 0.000000
vn 0.634400 0.773000 0.000000
vn 0.471400 0.881900 0.000000
vn 0.290300 0.956900 0.000000
vn 0.098000 0.995200 0.000000
vn -0.098000 0.995200 0.000000
vn -0.290300 0.956900 0.000000
vn -0.471400 0.881900 0.000000
vn -0.634400 0.773000 0.000000
vn -0.773000 0.634400 0.000000
vn -0.881900 0.471400 0.000000
vn -0.956900 0.290300 0.000000
vn -0.995200 0.098000 0.000000
vn -0.995200 -0.098000 0.000000
vn -0.956900 -0.290300 0.000000
vn -0.881900 -0.471400 0.000000
vn -0.773000 -0.634400 0.000000
vn -0.634400 -0.773000 0.000000
vn -0.471400 -0.881900 0.000000
vn -0.290300 -0.956900 0.000000
vn -0.098000 -0.995200 0.000000
vn 0.000000 0.000000 1.000000
vn -0.006900 1.000000 -0.003500
vn -0.000000 1.000000 0.000000
vn -0.042700 0.997400 0.058800
vn 0.017700 0.999700 -0.013900
vn -0.002500 -0.999800 0.018200
vn 0.127300 -0.991200 0.036600
vn 0.000000 -1.000000 -0.000000
vn 0.042700 -0.997400 -0.058800
vn -0.017700 -0.999700 0.013900
vn 0.007900 -1.000000 -0.000800
vn 0.709200 -0.008700 0.705000
vn 0.812500 0.003000 -0.582900
vn 0.994300 -0.002000 -0.106500
vn -0.950100 0.005800 -0.311900
vn 0.889300 -0.006900 0.457300
vn -0.126400 -0.008800 0.991900
vn -0.682600 0.008300 -0.730800
vn 0.069200 -0.009500 0.997600
vn 0.621100 0.005400 -0.783700
vn -0.952800 0.005700 -0.303600
vn 1.000000 -0.003000 0.000800
vn -0.561000 -0.006000 0.827800
vn -0.959800 0.000300 0.280600
vn 0.265100 0.008200 -0.964200
vn 0.599400 -0.009200 0.800400
vn 0.653600 0.005100 -0.756800
vn -0.984200 0.004600 -0.176900
vn -0.000000 0.009300 -1.000000
vn -0.873500 0.007200 -0.486800
vn 0.624700 0.005400 -0.780900
vn -0.245200 0.009700 -0.969400
vn -0.999800 0.002800 0.020400
vn 0.779000 0.003500 -0.627000
vn -0.752500 0.008400 -0.658500
vn 0.008100 0.999900 0.011500
vn 0.992500 -0.004100 0.122400
vn -0.991800 0.004200 -0.127500
vn -0.707300 0.008700 -0.706900
vn 0.999600 -0.003300 0.027000
vn 0.000000 -1.000000 -0.003400
vn 0.368400 -0.009500 0.929600
vn -0.001200 1.000000 0.006200
vn 0.000000 -0.000000 -1.000000
vn 0.074100 -0.244400 -0.966800
vn 0.147500 -0.276000 -0.949800
vn 0.228100 -0.278000 -0.933100
vn 0.288900 -0.237100 -0.927600
vn 0.306200 -0.163600 -0.937800
vn 0.281900 -0.085500 -0.955600
vn 0.236400 -0.023300 -0.971400
vn 0.199300 0.008700 -0.979900
vn 0.255100 0.077400 -0.963800
vn 0.277200 0.148100 -0.949300
vn 0.261000 0.214200 -0.941300
vn 0.205200 0.250000 -0.946300
vn 0.132000 0.246900 -0.960000
vn 0.066100 0.217900 -0.973700
vn 0.017700 0.180000 -0.983500
vn 0.000000 0.165900 -0.986100
vn -0.075900 0.250300 -0.965200
vn -0.176600 0.330400 -0.927200
vn -0.329900 0.402000 -0.854200
vn -0.489000 0.401300 -0.774500
vn -0.554500 0.296400 -0.777600
vn -0.489700 0.148500 -0.859100
vn -0.365300 0.036000 -0.930200
vn -0.318300 0.009500 -0.947900
vn -0.540000 -0.163800 -0.825600
vn -0.605200 -0.323500 -0.727400
vn -0.534800 -0.438900 -0.722000
vn -0.366300 -0.446300 -0.816500
vn -0.198200 -0.370900 -0.907300
vn -0.085500 -0.281800 -0.955700
vn 0.000000 -0.186500 -0.982400
vn 0.213700 0.021100 -0.976700
vn -0.014100 0.143400 -0.989600
vn -0.406100 -0.040000 -0.912900
vn 0.019900 -0.202200 -0.979100
vn -0.015900 -0.161200 -0.986800
vn -0.008300 0.999700 0.021800
vn -0.008800 0.999700 0.022800
vn 0.016700 0.999900 0.000400
vn -0.127300 0.991200 -0.036600
vn -0.007900 1.000000 0.000800
vn -0.026500 0.999600 -0.001800
vn 0.026500 -0.999600 0.001800
vn -0.008100 -0.999900 -0.011500
vn -0.016700 -0.999900 -0.000400
vn 0.008800 -0.999700 -0.022800
vn 0.002500 0.999800 -0.018200
vn 0.053300 0.996100 0.070900
vn 0.006900 -1.000000 0.003500
vn -0.053300 -0.996100 -0.070900
vn 0.003700 -0.999900 -0.016300
vn -0.683200 0.008800 -0.730200
vn 0.069100 -0.009500 0.997600
vn -0.752600 0.008400 -0.658500
vn 0.001200 -1.000000 -0.006200
vn 0.367800 -0.009700 0.929800
vn 0.000000 1.000000 0.003400
vn -0.003700 0.999900 0.016300
vn 0.005500 0.999800 -0.019800
vn -0.005500 -0.999800 0.019800
vn 0.008300 -0.999700 -0.021800
usemtl None
s off
f 128//1 3//1 1//1
f 127//2 5//2 3//2
f 129//3 7//3 5//3
f 130//4 9//4 7//4
f 131//5 11//5 9//5
f 132//6 13//6 11//6
f 133//7 15//7 13//7
f 134//8 17//8 15//8
f 135//9 19//9 17//9
f 136//10 21//10 19//10
f 137//11 23//11 21//11
f 138//12 25//12 23//12
f 139//13 27//13 25//13
f 140//14 29//14 27//14
f 141//15 31//15 29//15
f 142//16 33//16 31//16
f 143//17 35//17 33//17
f 144//18 37//18 35//18
f 145//19 39//19 37//19
f 146//20 41//20 39//20
f 147//21 43//21 41//21
f 148//22 45//22 43//22
f 149//23 47//23 45//23
f 150//24 49//24 47//24
f 151//25 51//25 49//25
f 152//26 53//26 51//26
f 153//27 55//27 53//27
f 154//28 57//28 55//28
f 155//29 59//29 57//29
f 156//30 61//30 59//30
f 62//31 222//31 64//31
f 158//32 1//32 63//32
f 157//31 63//31 61//31
f 31//33 47//33 63//33
f 80//34 78//34 77//34
f 70//35 71//35 72//35
f 87//36 90//36 74//36
f 68//37 93//37 67//37
f 109//38 107//38 108//38
f 109//39 119//39 103//39
f 99//40 101//40 100//40
f 119//41 116//41 103//41
f 97//42 96//42 122//42
f 109//43 105//43 106//43
f 89//44 121//44 118//44
f 75//45 105//45 104//45
f 92//44 111//44 121//44
f 76//46 106//46 105//46
f 91//47 112//47 120//47
f 77//48 107//48 106//48
f 90//49 110//49 119//49
f 79//50 125//50 123//50
f 69//51 97//51 68//51
f 87//52 103//52 116//52
f 80//53 108//53 79//53
f 67//54 122//54 96//54
f 68//55 122//55 93//55
f 90//56 109//56 80//56
f 66//57 96//57 95//57
f 81//58 118//58 110//58
f 65//59 95//59 94//59
f 82//60 120//60 111//60
f 70//61 94//61 99//61
f 88//62 112//62 83//62
f 71//63 99//63 100//63
f 85//64 113//64 84//64
f 71//65 101//65 72//65
f 86//66 114//66 85//66
f 72//67 102//67 73//67
f 82//68 92//68 91//68
f 86//69 116//69 115//69
f 73//70 103//70 74//70
f 89//68 83//68 91//68
f 88//71 113//71 117//71
f 69//72 104//72 98//72
f 92//68 89//68 91//68
f 108//73 126//73 125//73
f 107//74 124//74 126//74
f 79//75 124//75 78//75
f 2//76 127//76 128//76
f 6//76 127//76 4//76
f 6//76 130//76 129//76
f 8//76 131//76 130//76
f 12//76 131//76 10//76
f 14//76 132//76 12//76
f 16//76 133//76 14//76
f 18//76 134//76 16//76
f 20//76 135//76 18//76
f 22//76 136//76 20//76
f 24//76 137//76 22//76
f 26//76 138//76 24//76
f 28//76 139//76 26//76
f 30//76 140//76 28//76
f 30//76 142//76 141//76
f 34//76 142//76 32//76
f 36//76 143//76 34//76
f 36//76 145//76 144//76
f 40//76 145//76 38//76
f 40//76 147//76 146//76
f 44//76 147//76 42//76
f 44//76 149//76 148//76
f 48//76 149//76 46//76
f 48//76 151//76 150//76
f 50//76 152//76 151//76
f 54//76 152//76 52//76
f 54//76 154//76 153//76
f 58//76 154//76 56//76
f 58//76 156//76 155//76
f 62//76 156//76 60//76
f 62//76 158//76 157//76
f 2//76 158//76 64//76
f 182//24 247//24 183//24
f 36//18 209//18 38//18
f 10//5 196//5 12//5
f 64//32 192//32 2//32
f 38//19 210//19 40//19
f 12//6 197//6 14//6
f 40//20 211//20 42//20
f 14//7 198//7 16//7
f 42//21 212//21 44//21
f 16//8 199//8 18//8
f 44//22 213//22 46//22
f 18//9 200//9 20//9
f 46//23 214//23 48//23
f 20//10 201//10 22//10
f 48//24 215//24 50//24
f 22//11 202//11 24//11
f 50//25 216//25 52//25
f 24//12 203//12 26//12
f 52//26 217//26 54//26
f 26//13 204//13 28//13
f 54//27 218//27 56//27
f 28//14 205//14 30//14
f 2//1 191//1 4//1
f 56//28 219//28 58//28
f 30//15 206//15 32//15
f 4//2 193//2 6//2
f 58//29 220//29 60//29
f 32//16 207//16 34//16
f 6//3 194//3 8//3
f 60//30 221//30 62//30
f 34//17 208//17 36//17
f 8//4 195//4 10//4
f 159//76 192//76 160//76
f 161//76 191//76 159//76
f 161//76 194//76 193//76
f 162//76 195//76 194//76
f 164//76 195//76 163//76
f 165//76 196//76 164//76
f 165//76 198//76 197//76
f 166//76 199//76 198//76
f 167//76 200//76 199//76
f 168//76 201//76 200//76
f 170//76 201//76 169//76
f 170//76 203//76 202//76
f 172//76 203//76 171//76
f 173//76 204//76 172//76
f 174//76 205//76 173//76
f 174//76 207//76 206//76
f 176//76 207//76 175//76
f 177//76 208//76 176//76
f 178//76 209//76 177//76
f 179//76 210//76 178//76
f 180//76 211//76 179//76
f 180//76 213//76 212//76
f 182//76 213//76 181//76
f 183//76 214//76 182//76
f 184//76 215//76 183//76
f 185//76 216//76 184//76
f 185//76 218//76 217//76
f 187//76 218//76 186//76
f 188//76 219//76 187//76
f 189//76 220//76 188//76
f 189//76 222//76 221//76
f 160//76 222//76 190//76
f 169//11 234//11 170//11
f 183//25 248//25 184//25
f 170//12 235//12 171//12
f 184//26 249//26 185//26
f 171//13 236//13 172//13
f 185//27 250//27 186//27
f 172//14 237//14 173//14
f 160//1 223//1 159//1
f 186//28 251//28 187//28
f 173//15 238//15 174//15
f 161//2 223//2 225//2
f 187//29 252//29 188//29
f 174//16 239//16 175//16
f 162//3 225//3 226//3
f 189//30 252//30 253//30
f 175//17 240//17 176//17
f 162//4 227//4 163//4
f 189//31 254//31 190//31
f 176//18 241//18 177//18
f 163//5 228//5 164//5
f 190//32 224//32 160//32
f 177//19 242//19 178//19
f 164//6 229//6 165//6
f 178//20 243//20 179//20
f 165//7 230//7 166//7
f 179//21 244//21 180//21
f 166//8 231//8 167//8
f 180//22 245//22 181//22
f 167//9 232//9 168//9
f 181//23 246//23 182//23
f 168//10 233//10 169//10
f 223//77 126//77 225//77
f 225//78 126//78 226//78
f 226//79 126//79 227//79
f 227//80 126//80 228//80
f 228//81 126//81 229//81
f 229//82 126//82 230//82
f 230//83 126//83 231//83
f 231//84 126//84 124//84
f 232//85 124//85 233//85
f 233//86 124//86 234//86
f 234//87 124//87 235//87
f 235//88 124//88 236//88
f 236//89 124//89 237//89
f 237//90 124//90 238//90
f 238//91 124//91 239//91
f 124//92 123//92 240//92
f 240//93 123//93 241//93
f 241//94 123//94 242//94
f 242//95 123//95 243//95
f 243//96 123//96 244//96
f 244//97 123//97 245//97
f 245//98 123//98 246//98
f 246//99 123//99 247//99
f 247//100 123//100 125//100
f 248//101 125//101 249//101
f 249//102 125//102 250//102
f 250//103 125//103 251//103
f 251//104 125//104 252//104
f 252//105 125//105 253//105
f 253//106 125//106 254//106
f 125//107 126//107 254//107
f 232//108 231//108 124//108
f 239//109 124//109 240//109
f 248//110 247//110 125//110
f 223//111 224//111 126//111
f 126//112 224//112 254//112
f 88//113 81//113 87//113
f 87//114 84//114 88//114
f 85//115 84//115 86//115
f 80//116 74//116 90//116
f 76//117 80//117 77//117
f 74//35 75//35 73//35
f 73//35 69//35 72//35
f 69//35 70//35 72//35
f 65//35 70//35 66//35
f 68//118 66//118 69//118
f 104//40 103//40 102//40
f 98//40 102//40 101//40
f 95//119 97//119 98//119
f 99//40 94//40 95//40
f 99//40 98//40 101//40
f 118//120 121//120 120//120
f 112//120 118//120 120//120
f 117//120 110//120 112//120
f 113//121 114//121 115//121
f 113//122 116//122 117//122
f 121//120 111//120 120//120
f 128//1 127//1 3//1
f 127//2 129//2 5//2
f 129//3 130//3 7//3
f 130//4 131//4 9//4
f 131//5 132//5 11//5
f 132//6 133//6 13//6
f 133//7 134//7 15//7
f 134//8 135//8 17//8
f 135//9 136//9 19//9
f 136//10 137//10 21//10
f 137//11 138//11 23//11
f 138//12 139//12 25//12
f 139//13 140//13 27//13
f 140//14 141//14 29//14
f 141//15 142//15 31//15
f 142//16 143//16 33//16
f 143//17 144//17 35//17
f 144//18 145//18 37//18
f 145//19 146//19 39//19
f 146//20 147//20 41//20
f 147//21 148//21 43//21
f 148//22 149//22 45//22
f 149//23 150//23 47//23
f 150//24 151//24 49//24
f 151//25 152//25 51//25
f 152//26 153//26 53//26
f 153//27 154//27 55//27
f 154//28 155//28 57//28
f 155//29 156//29 59//29
f 156//30 157//30 61//30
f 62//31 221//31 222//31
f 158//32 128//32 1//32
f 157//31 158//31 63//31
f 63//33 1//33 3//33
f 3//33 5//33 63//33
f 7//33 9//33 15//33
f 11//33 13//33 15//33
f 15//33 17//33 19//33
f 19//33 21//33 15//33
f 23//33 25//33 31//33
f 27//33 29//33 31//33
f 31//33 33//33 35//33
f 35//33 37//33 31//33
f 39//33 41//33 43//33
f 43//33 45//33 47//33
f 47//33 49//33 51//33
f 51//33 53//33 55//33
f 55//33 57//33 59//33
f 59//33 61//33 63//33
f 63//33 5//33 7//33
f 9//33 11//33 15//33
f 15//33 21//33 23//33
f 25//33 27//33 31//33
f 31//33 37//33 39//33
f 39//33 43//33 47//33
f 47//33 51//33 55//33
f 55//33 59//33 63//33
f 63//33 7//33 31//33
f 15//33 23//33 31//33
f 31//33 39//33 47//33
f 47//33 55//33 63//33
f 7//33 15//33 31//33
f 80//123 79//123 78//123
f 87//124 81//124 90//124
f 109//125 106//125 107//125
f 119//126 110//126 116//126
f 109//127 103//127 105//127
f 89//44 92//44 121//44
f 75//45 76//45 105//45
f 92//44 82//44 111//44
f 76//46 77//46 106//46
f 91//47 83//47 112//47
f 77//48 78//48 107//48
f 90//49 81//49 110//49
f 79//128 108//128 125//128
f 69//129 98//129 97//129
f 87//52 74//52 103//52
f 80//53 109//53 108//53
f 67//54 93//54 122//54
f 68//55 97//55 122//55
f 90//56 119//56 109//56
f 66//57 67//57 96//57
f 81//58 89//58 118//58
f 65//59 66//59 95//59
f 82//60 91//60 120//60
f 70//61 65//61 94//61
f 88//62 117//62 112//62
f 71//63 70//63 99//63
f 85//64 114//64 113//64
f 71//65 100//65 101//65
f 86//66 115//66 114//66
f 72//130 101//130 102//130
f 86//69 87//69 116//69
f 73//70 102//70 103//70
f 89//68 81//68 83//68
f 88//71 84//71 113//71
f 69//72 75//72 104//72
f 108//131 107//131 126//131
f 107//132 78//132 124//132
f 79//133 123//133 124//133
f 2//76 4//76 127//76
f 6//76 129//76 127//76
f 6//76 8//76 130//76
f 8//76 10//76 131//76
f 12//76 132//76 131//76
f 14//76 133//76 132//76
f 16//76 134//76 133//76
f 18//76 135//76 134//76
f 20//76 136//76 135//76
f 22//76 137//76 136//76
f 24//76 138//76 137//76
f 26//76 139//76 138//76
f 28//76 140//76 139//76
f 30//76 141//76 140//76
f 30//76 32//76 142//76
f 34//76 143//76 142//76
f 36//76 144//76 143//76
f 36//76 38//76 145//76
f 40//76 146//76 145//76
f 40//76 42//76 147//76
f 44//76 148//76 147//76
f 44//76 46//76 149//76
f 48//76 150//76 149//76
f 48//76 50//76 151//76
f 50//76 52//76 152//76
f 54//76 153//76 152//76
f 54//76 56//76 154//76
f 58//76 155//76 154//76
f 58//76 60//76 156//76
f 62//76 157//76 156//76
f 62//76 64//76 158//76
f 2//76 128//76 158//76
f 182//24 246//24 247//24
f 36//18 208//18 209//18
f 10//5 195//5 196//5
f 64//32 222//32 192//32
f 38//19 209//19 210//19
f 12//6 196//6 197//6
f 40//20 210//20 211//20
f 14//7 197//7 198//7
f 42//21 211//21 212//21
f 16//8 198//8 199//8
f 44//22 212//22 213//22
f 18//9 199//9 200//9
f 46//23 213//23 214//23
f 20//10 200//10 201//10
f 48//24 214//24 215//24
f 22//11 201//11 202//11
f 50//25 215//25 216//25
f 24//12 202//12 203//12
f 52//26 216//26 217//26
f 26//13 203//13 204//13
f 54//27 217//27 218//27
f 28//14 204//14 205//14
f 2//1 192//1 191//1
f 56//28 218//28 219//28
f 30//15 205//15 206//15
f 4//2 191//2 193//2
f 58//29 219//29 220//29
f 32//16 206//16 207//16
f 6//3 193//3 194//3
f 60//30 220//30 221//30
f 34//17 207//17 208//17
f 8//4 194//4 195//4
f 159//76 191//76 192//76
f 161//76 193//76 191//76
f 161//76 162//76 194//76
f 162//76 163//76 195//76
f 164//76 196//76 195//76
f 165//76 197//76 196//76
f 165//76 166//76 198//76
f 166//76 167//76 199//76
f 167//76 168//76 200//76
f 168//76 169//76 201//76
f 170//76 202//76 201//76
f 170//76 171//76 203//76
f 172//76 204//76 203//76
f 173//76 205//76 204//76
f 174//76 206//76 205//76
f 174//76 175//76 207//76
f 176//76 208//76 207//76
f 177//76 209//76 208//76
f 178//76 210//76 209//76
f 179//76 211//76 210//76
f 180//76 212//76 211//76
f 180//76 181//76 213//76
f 182//76 214//76 213//76
f 183//76 215//76 214//76
f 184//76 216//76 215//76
f 185//76 217//76 216//76
f 185//76 186//76 218//76
f 187//76 219//76 218//76
f 188//76 220//76 219//76
f 189//76 221//76 220//76
f 189//76 190//76 222//76
f 160//76 192//76 222//76
f 169//11 233//11 234//11
f 183//25 247//25 248//25
f 170//12 234//12 235//12
f 184//26 248//26 249//26
f 171//13 235//13 236//13
f 185//27 249//27 250//27
f 172//14 236//14 237//14
f 160//1 224//1 223//1
f 186//28 250//28 251//28
f 173//15 237//15 238//15
f 161//2 159//2 223//2
f 187//29 251//29 252//29
f 174//16 238//16 239//16
f 162//3 161//3 225//3
f 189//30 188//30 252//30
f 175//17 239//17 240//17
f 162//4 226//4 227//4
f 189//31 253//31 254//31
f 176//18 240//18 241//18
f 163//5 227//5 228//5
f 190//32 254//32 224//32
f 177//19 241//19 242//19
f 164//6 228//6 229//6
f 178//20 242//20 243//20
f 165//7 229//7 230//7
f 179//21 243//21 244//21
f 166//8 230//8 231//8
f 180//22 244//22 245//22
f 167//9 231//9 232//9
f 181//23 245//23 246//23
f 168//10 232//10 233//10
f 88//68 83//68 81//68
f 87//115 86//115 84//115
f 76//134 74//134 80//134
f 74//35 76//35 75//35
f 73//35 75//35 69//35
f 69//35 66//35 70//35
f 68//135 67//135 66//135
f 104//40 105//40 103//40
f 98//40 104//40 102//40
f 95//136 96//136 97//136
f 99//40 95//40 98//40
f 112//120 110//120 118//120
f 117//137 116//137 110//137
f 113//121 115//121 116//121
