# Blender v2.77 (sub 0) OBJ File: ''
# www.blender.org
mtllib griffin.mtl
o Griffin_Cylinder.002
v 0.000000 0.375000 0.050000
v -0.073159 0.367794 0.000000
v 0.000000 0.375000 0.000000
v -0.073159 0.367794 0.050000
v -0.143506 0.346455 0.000000
v -0.143506 0.346455 0.050000
v -0.208339 0.311801 0.000000
v -0.208339 0.311801 0.050000
v -0.265165 0.265165 0.000000
v -0.265165 0.265165 0.050000
v -0.311801 0.208339 0.000000
v -0.311801 0.208339 0.050000
v -0.346455 0.143506 0.000000
v -0.346455 0.143506 0.050000
v -0.367794 0.073159 0.000000
v -0.367794 0.073159 0.050000
v -0.375000 0.000000 0.000000
v -0.375000 -0.000000 0.050000
v -0.367794 -0.073159 -0.000000
v -0.367794 -0.073159 0.050000
v -0.346455 -0.143506 -0.000000
v -0.346455 -0.143506 0.050000
v -0.311801 -0.208339 -0.000000
v -0.311801 -0.208339 0.050000
v -0.265165 -0.265165 -0.000000
v -0.265165 -0.265165 0.050000
v -0.208339 -0.311801 -0.000000
v -0.208339 -0.311801 0.050000
v -0.143506 -0.346455 -0.000000
v -0.143506 -0.346455 0.050000
v -0.073159 -0.367794 -0.000000
v -0.073159 -0.367794 0.050000
v 0.000000 -0.375000 -0.000000
v 0.000000 -0.375000 0.050000
v 0.073159 -0.367794 -0.000000
v 0.073159 -0.367794 0.050000
v 0.143506 -0.346455 -0.000000
v 0.143506 -0.346455 0.050000
v 0.208339 -0.311801 -0.000000
v 0.208339 -0.311801 0.050000
v 0.265165 -0.265165 -0.000000
v 0.265165 -0.265165 0.050000
v 0.311801 -0.208339 -0.000000
v 0.311801 -0.208339 0.050000
v 0.346455 -0.143506 -0.000000
v 0.346455 -0.143506 0.050000
v 0.367795 -0.073159 -0.000000
v 0.367795 -0.073159 0.050000
v 0.375000 0.000000 0.000000
v 0.375000 -0.000000 0.050000
v 0.367794 0.073159 0.000000
v 0.367794 0.073159 0.050000
v 0.346455 0.143507 0.000000
v 0.346455 0.143507 0.050000
v 0.311801 0.208339 0.000000
v 0.311801 0.208339 0.050000
v 0.265165 0.265165 0.000000
v 0.265165 0.265165 0.050000
v 0.208338 0.311801 0.000000
v 0.208338 0.311801 0.050000
v 0.143506 0.346455 0.000000
v 0.092055 0.222242 0.050000
v 0.046929 0.235931 0.117607
v 0.046929 0.235931 0.050000
v 0.073158 0.367795 0.050000
v 0.073158 0.367795 0.000000
v 0.143506 0.346455 0.050000
v 0.028148 -0.097720 0.427075
v -0.209025 -0.099889 0.275511
v -0.253248 -0.099890 0.361501
v -0.093553 -0.099889 0.679662
v -0.050559 -0.099889 0.714058
v -0.051787 -0.099889 0.653866
v 0.032061 -0.100107 0.592281
v 0.045524 -0.093297 0.486511
v -0.023533 -0.099888 0.548221
v -0.232820 -0.100777 0.603366
v -0.251982 -0.100619 0.590379
v -0.252020 -0.099890 0.642810
v 0.028750 0.102271 0.428933
v -0.208423 0.100101 0.277369
v 0.063883 0.100181 0.318649
v 0.046125 0.106694 0.488369
v -0.022932 0.100102 0.550079
v -0.092952 0.100101 0.681520
v -0.051185 0.100102 0.655723
v -0.049957 0.100102 0.715916
v 0.032663 0.099884 0.594139
v -0.232218 0.099213 0.605224
v -0.251418 0.100101 0.644668
v -0.251381 0.099371 0.592237
v -0.237906 0.100101 0.500942
v -0.252647 0.100101 0.363359
v 0.236996 -0.097270 0.399622
v 0.294429 0.102917 0.344308
v 0.237598 0.102721 0.401479
v -0.197969 -0.099890 0.555592
v -0.197368 0.100101 0.557450
v 0.293828 -0.097073 0.342450
v 0.351261 0.103114 0.287136
v -0.238507 -0.099890 0.499084
v 0.326004 -0.098257 0.422406
v 0.279275 0.100456 0.568445
v 0.326606 0.101734 0.424264
v 0.110629 0.102657 0.496555
v 0.063281 -0.099810 0.316791
v 0.147649 0.100446 0.240270
v 0.147198 -0.099545 0.238412
v -0.199198 -0.099890 0.601043
v -0.202883 -0.099890 0.656322
v -0.202281 0.100101 0.658180
v 0.110027 -0.097333 0.494697
v -0.175858 -0.099889 0.679662
v -0.175256 0.100101 0.681520
v 0.350659 -0.096876 0.285278
v 0.219981 -0.100271 0.671879
v 0.278673 -0.099534 0.566587
v 0.063717 -0.100707 0.758343
v 0.157779 0.097735 0.736547
v 0.157177 -0.102255 0.734689
v 0.018504 -0.099928 0.702176
v 0.064318 0.099284 0.760201
v -0.033987 0.100102 0.636069
v -0.034589 -0.099888 0.634211
v 0.019106 0.100062 0.704034
v 0.220582 0.099720 0.673737
v -0.198596 0.100100 0.602901
v -0.114786 0.100446 0.240270
v -0.115237 -0.099545 0.238412
v 0.000000 0.240553 0.050000
v -0.092056 0.222242 0.050000
v -0.046930 0.235931 0.050000
v -0.133644 0.200013 0.050000
v -0.200013 0.133644 0.050000
v -0.170097 0.170097 0.050000
v -0.222242 0.092056 0.050000
v -0.235931 0.046930 0.050000
v -0.240553 -0.000000 0.050000
v -0.235931 -0.046930 0.050000
v -0.222242 -0.092056 0.050000
v -0.200013 -0.133644 0.050000
v -0.170097 -0.170097 0.050000
v -0.133644 -0.200013 0.050000
v -0.092056 -0.222242 0.050000
v 0.000000 -0.240553 0.050000
v -0.046930 -0.235931 0.050000
v 0.046930 -0.235931 0.050000
v 0.133644 -0.200013 0.050000
v 0.092056 -0.222242 0.050000
v 0.200013 -0.133644 0.050000
v 0.170097 -0.170097 0.050000
v 0.235931 -0.046929 0.050000
v 0.222242 -0.092056 0.050000
v 0.240553 -0.000000 0.050000
v 0.222242 0.092056 0.050000
v 0.235931 0.046930 0.050000
v 0.170097 0.170097 0.050000
v 0.200013 0.133645 0.050000
v 0.133644 0.200013 0.050000
v 0.193441 -0.038478 0.117607
v 0.197230 -0.000000 0.222614
v 0.197230 -0.000000 0.117607
v 0.092056 -0.222242 0.117607
v -0.200013 0.133644 0.117607
v 0.000000 0.240553 0.117607
v 0.133644 -0.200013 0.117607
v -0.222242 0.092056 0.117607
v 0.170097 -0.170097 0.117607
v -0.235931 0.046930 0.117607
v 0.200013 -0.133644 0.117607
v -0.240553 -0.000000 0.117607
v 0.222242 -0.092056 0.117607
v -0.235931 -0.046930 0.117607
v 0.235931 -0.046929 0.117607
v -0.222242 -0.092056 0.117607
v 0.240553 -0.000000 0.117607
v -0.200013 -0.133644 0.117607
v 0.235931 0.046930 0.117607
v -0.170097 -0.170097 0.117607
v 0.222242 0.092056 0.117607
v -0.133644 -0.200013 0.117607
v 0.200013 0.133645 0.117607
v -0.092056 -0.222242 0.117607
v -0.046930 0.235931 0.117607
v 0.170097 0.170097 0.117607
v -0.046930 -0.235931 0.117607
v -0.092056 0.222242 0.117607
v 0.133644 0.200013 0.117607
v 0.000000 -0.240553 0.117607
v -0.133644 0.200013 0.117607
v 0.092055 0.222242 0.117607
v 0.046930 -0.235931 0.117607
v -0.170097 0.170097 0.117607
v -0.038478 0.193441 0.117607
v 0.000000 0.197231 0.117607
v -0.075477 0.182217 0.117607
v -0.109575 0.163991 0.117607
v -0.163991 0.109575 0.117607
v -0.139463 0.139463 0.117607
v -0.182217 0.075477 0.117607
v -0.193441 0.038478 0.117607
v -0.197230 -0.000000 0.117607
v -0.193441 -0.038478 0.117607
v -0.163991 -0.109575 0.117607
v -0.182217 -0.075477 0.117607
v -0.109575 -0.163991 0.117607
v -0.139463 -0.139463 0.117607
v -0.075477 -0.182217 0.117607
v -0.038478 -0.193441 0.117607
v 0.038478 -0.193441 0.117607
v 0.000000 -0.197230 0.117607
v 0.075477 -0.182217 0.117607
v 0.109576 -0.163991 0.117607
v 0.139463 -0.139463 0.117607
v 0.163991 -0.109575 0.117607
v 0.182217 -0.075477 0.117607
v 0.193441 0.038478 0.117607
v 0.182217 0.075477 0.117607
v 0.139463 0.139463 0.117607
v 0.163991 0.109576 0.117607
v 0.109575 0.163991 0.117607
v 0.075477 0.182217 0.117607
v 0.038477 0.193441 0.117607
v -0.163991 -0.109575 0.222614
v 0.193441 0.038478 0.222614
v -0.139463 -0.139463 0.222614
v 0.182217 0.075477 0.222614
v -0.109575 -0.163991 0.222614
v 0.163991 0.109576 0.222614
v -0.075477 -0.182217 0.222614
v -0.038478 0.193441 0.222614
v 0.139463 0.139463 0.222614
v -0.038478 -0.193441 0.222614
v -0.075477 0.182217 0.222614
v 0.109575 0.163991 0.222614
v 0.000000 -0.197230 0.222614
v -0.109575 0.163991 0.222614
v 0.075477 0.182217 0.222614
v 0.038478 -0.193441 0.222614
v -0.139463 0.139463 0.222614
v 0.038477 0.193441 0.222614
v 0.075477 -0.182217 0.222614
v -0.163991 0.109575 0.222614
v 0.000000 0.197231 0.222614
v 0.109576 -0.163991 0.222614
v -0.182217 0.075477 0.222614
v 0.139463 -0.139463 0.222614
v -0.193441 0.038478 0.222614
v 0.163991 -0.109575 0.222614
v -0.197230 -0.000000 0.222614
v 0.182217 -0.075477 0.222614
v -0.193441 -0.038478 0.222614
v 0.193441 -0.038478 0.222614
v -0.182217 -0.075477 0.222614
vn -0.098000 0.995200 0.000000
vn -0.290300 0.956900 0.000000
vn -0.471400 0.881900 0.000000
vn -0.634400 0.773000 0.000000
vn -0.773000 0.634400 0.000000
vn -0.881900 0.471400 0.000000
vn -0.956900 0.290300 0.000000
vn -0.995200 0.098000 0.000000
vn -0.995200 -0.098000 0.000000
vn -0.956900 -0.290300 0.000000
vn -0.881900 -0.471400 0.000000
vn -0.773000 -0.634400 0.000000
vn -0.634400 -0.773000 0.000000
vn -0.471400 -0.881900 0.000000
vn -0.290300 -0.956900 0.000000
vn -0.098000 -0.995200 0.000000
vn 0.098000 -0.995200 0.000000
vn 0.290300 -0.956900 0.000000
vn 0.471400 -0.881900 0.000000
vn 0.634400 -0.773000 0.000000
vn 0.773000 -0.634400 0.000000
vn 0.881900 -0.471400 0.000000
vn 0.956900 -0.290300 0.000000
vn 0.995200 -0.098000 0.000000
vn 0.995200 0.098000 0.000000
vn 0.956900 0.290300 0.000000
vn 0.881900 0.471400 0.000000
vn 0.773000 0.634400 0.000000
vn 0.634400 0.773000 0.000000
vn 0.471400 0.881900 0.000000
vn 0.290300 0.956900 0.000000
vn 0.098000 0.995200 0.000000
vn -0.000000 0.000000 -1.000000
vn 0.006900 -1.000000 0.003500
vn 0.000000 -1.000000 0.000000
vn 0.042700 -0.997400 -0.058800
vn -0.017700 -0.999700 0.013900
vn 0.002500 0.999800 -0.018200
vn -0.127300 0.991200 -0.036600
vn -0.000000 1.000000 0.000000
vn -0.042700 0.997400 0.058800
vn 0.017700 0.999700 -0.013900
vn -0.007900 1.000000 0.000800
vn -0.709200 0.008700 -0.705000
vn -0.812500 -0.003000 0.582900
vn -0.994300 0.002000 0.106500
vn 0.950100 -0.005800 0.311800
vn -0.889300 0.006900 -0.457300
vn 0.126400 0.008800 -0.991900
vn 0.682800 -0.008500 0.730600
vn 0.682600 -0.008300 0.730800
vn 0.682700 -0.008000 0.730700
vn -0.069200 0.009500 -0.997600
vn -0.621100 -0.005400 0.783700
vn 0.952800 -0.005700 0.303600
vn -1.000000 0.003000 -0.000800
vn -1.000000 0.003000 -0.000700
vn 0.561100 0.006000 -0.827800
vn 0.561000 0.006000 -0.827800
vn 0.959800 -0.000300 -0.280600
vn -0.265100 -0.008200 0.964200
vn -0.599400 0.009200 -0.800400
vn -0.653600 -0.005100 0.756800
vn 0.984200 -0.004600 0.176900
vn 0.000000 -0.009300 1.000000
vn 0.873500 -0.007200 0.486800
vn 0.873500 -0.007100 0.486800
vn -0.624700 -0.005400 0.780900
vn 0.245200 -0.009700 0.969400
vn 0.999800 -0.002800 -0.020400
vn -0.779000 -0.003500 0.627000
vn 0.752600 -0.008400 0.658500
vn 0.752500 -0.008400 0.658500
vn -0.008100 -0.999900 -0.011500
vn -0.992500 0.004100 -0.122400
vn 0.991800 -0.004200 0.127500
vn 0.707300 -0.008700 0.706900
vn -0.999600 0.003300 -0.027000
vn 0.000000 1.000000 0.003400
vn -0.368200 0.009600 -0.929700
vn -0.368400 0.009500 -0.929600
vn -0.368000 0.009700 -0.929800
vn 0.001200 -1.000000 -0.006200
vn 0.000000 -0.000000 1.000000
vn -0.074100 0.244400 0.966800
vn -0.147500 0.276000 0.949800
vn -0.228100 0.278000 0.933100
vn -0.288900 0.237100 0.927600
vn -0.306200 0.163600 0.937800
vn -0.281900 0.085500 0.955600
vn -0.236400 0.023300 0.971400
vn -0.199300 -0.008700 0.979900
vn -0.255100 -0.077400 0.963800
vn -0.277100 -0.148100 0.949300
vn -0.261000 -0.214200 0.941300
vn -0.205200 -0.250000 0.946300
vn -0.132000 -0.246900 0.960000
vn -0.066100 -0.217900 0.973700
vn -0.017700 -0.180000 0.983500
vn 0.000000 -0.165900 0.986100
vn 0.075900 -0.250300 0.965200
vn 0.176600 -0.330400 0.927200
vn 0.329900 -0.402000 0.854200
vn 0.489000 -0.401300 0.774500
vn 0.554500 -0.296400 0.777600
vn 0.489700 -0.148500 0.859200
vn 0.365300 -0.036000 0.930200
vn 0.318300 -0.009500 0.948000
vn 0.540000 0.163800 0.825600
vn 0.605200 0.323500 0.727400
vn 0.534800 0.438900 0.722000
vn 0.366300 0.446300 0.816500
vn 0.198200 0.370900 0.907300
vn 0.085500 0.281800 0.955700
vn 0.000000 0.186500 0.982400
vn -0.213700 -0.021000 0.976700
vn 0.014100 -0.143400 0.989600
vn 0.406100 0.040000 0.912900
vn -0.019900 0.202200 0.979100
vn 0.015900 0.161200 0.986800
vn 0.008800 -0.999700 -0.021900
vn 0.008200 -0.999700 -0.022600
vn 0.008300 -0.999700 -0.021800
vn 0.008800 -0.999700 -0.022800
vn -0.016700 -0.999900 -0.000400
vn 0.127300 -0.991200 0.036600
vn 0.007900 -1.000000 -0.000800
vn 0.026500 -0.999600 0.001800
vn -0.026500 0.999600 -0.001800
vn 0.008100 0.999900 0.011500
vn 0.016700 0.999900 0.000400
vn -0.008800 0.999700 0.022800
vn -0.008800 0.999700 0.022000
vn -0.008200 0.999700 0.022600
vn -0.002500 -0.999800 0.018200
vn -0.053300 -0.996100 -0.070900
vn -0.006900 1.000000 -0.003500
vn 0.053300 0.996100 0.070900
vn -0.003700 0.999900 0.016300
vn -0.709200 0.008700 -0.704900
vn 0.683200 -0.008800 0.730200
vn -0.001200 1.000000 0.006200
vn -0.367800 0.009700 -0.929800
vn 0.000000 -1.000000 -0.003400
vn 0.003700 -0.999900 -0.016300
vn -0.005500 -0.999800 0.019800
vn 0.005500 0.999800 -0.019900
vn -0.008300 0.999700 0.021700
usemtl None
s 1
f 1//1 3//1 2//1
f 4//2 2//2 5//2
f 6//3 5//3 7//3
f 8//4 7//4 9//4
f 10//5 9//5 11//5
f 12//6 11//6 13//6
f 14//7 13//7 15//7
f 16//8 15//8 17//8
f 18//9 17//9 19//9
f 20//10 19//10 21//10
f 22//11 21//11 23//11
f 24//12 23//12 25//12
f 26//13 25//13 27//13
f 28//14 27//14 29//14
f 30//15 29//15 31//15
f 32//16 31//16 33//16
f 34//17 33//17 35//17
f 36//18 35//18 37//18
f 38//19 37//19 39//19
f 40//20 39//20 41//20
f 42//21 41//21 43//21
f 44//22 43//22 45//22
f 46//23 45//23 47//23
f 48//24 47//24 49//24
f 50//25 49//25 51//25
f 52//26 51//26 53//26
f 54//27 53//27 55//27
f 56//28 55//28 57//28
f 58//29 57//29 59//29
f 60//30 59//30 61//30
f 62//31 64//31 63//31
f 65//32 66//32 3//32
f 67//31 61//31 66//31
f 31//33 66//33 47//33
f 68//34 70//34 69//34
f 71//35 73//35 72//35
f 74//36 76//36 75//36
f 77//37 79//37 78//37
f 80//38 82//38 81//38
f 80//39 84//39 83//39
f 85//40 87//40 86//40
f 83//41 84//41 88//41
f 89//42 91//42 90//42
f 80//43 93//43 92//43
f 94//44 96//44 95//44
f 97//45 98//45 92//45
f 99//44 95//44 100//44
f 101//46 92//46 93//46
f 102//47 104//47 103//47
f 70//48 93//48 81//48
f 75//49 83//49 105//49
f 106//50 108//51 107//52
f 109//53 77//53 89//53
f 74//54 88//54 84//54
f 68//55 106//55 82//55
f 79//56 90//57 91//56
f 77//58 78//58 91//59
f 75//60 68//60 80//60
f 110//61 111//61 90//61
f 112//62 105//62 96//62
f 113//63 114//63 111//63
f 115//64 100//64 104//64
f 71//65 85//65 114//65
f 116//66 117//66 103//67
f 72//68 87//68 85//68
f 118//69 120//69 119//69
f 72//70 73//70 86//70
f 121//71 118//71 122//71
f 73//72 124//72 123//73
f 115//74 102//74 99//74
f 121//75 125//75 88//75
f 124//76 76//76 84//76
f 94//74 102//74 117//74
f 116//77 126//77 119//77
f 109//78 127//78 98//78
f 99//74 102//74 94//74
f 82//79 107//79 128//79
f 81//80 128//81 129//82
f 106//83 69//83 129//83
f 130//84 1//84 4//84
f 131//84 132//84 4//84
f 131//84 6//84 8//84
f 133//84 8//84 10//84
f 134//84 135//84 10//84
f 136//84 134//84 12//84
f 137//84 136//84 14//84
f 138//84 137//84 16//84
f 139//84 138//84 18//84
f 140//84 139//84 20//84
f 141//84 140//84 22//84
f 142//84 141//84 24//84
f 143//84 142//84 26//84
f 144//84 143//84 28//84
f 144//84 30//84 32//84
f 145//84 146//84 32//84
f 147//84 145//84 34//84
f 147//84 36//84 38//84
f 148//84 149//84 38//84
f 148//84 40//84 42//84
f 150//84 151//84 42//84
f 150//84 44//84 46//84
f 152//84 153//84 46//84
f 152//84 48//84 50//84
f 154//84 50//84 52//84
f 155//84 156//84 52//84
f 155//84 54//84 56//84
f 157//84 158//84 56//84
f 157//84 58//84 60//84
f 62//84 159//84 60//84
f 62//84 67//84 65//84
f 130//84 64//84 65//84
f 160//24 162//24 161//24
f 147//18 149//18 163//18
f 135//5 134//5 164//5
f 64//32 130//32 165//32
f 149//19 148//19 166//19
f 134//6 136//6 167//6
f 148//20 151//20 168//20
f 136//7 137//7 169//7
f 151//21 150//21 170//21
f 137//8 138//8 171//8
f 150//22 153//22 172//22
f 138//9 139//9 173//9
f 153//23 152//23 174//23
f 139//10 140//10 175//10
f 152//24 154//24 176//24
f 140//11 141//11 177//11
f 154//25 156//25 178//25
f 141//12 142//12 179//12
f 156//26 155//26 180//26
f 142//13 143//13 181//13
f 155//27 158//27 182//27
f 143//14 144//14 183//14
f 130//1 132//1 184//1
f 158//28 157//28 185//28
f 144//15 146//15 186//15
f 132//2 131//2 187//2
f 157//29 159//29 188//29
f 146//16 145//16 189//16
f 131//3 133//3 190//3
f 159//30 62//30 191//30
f 145//17 147//17 192//17
f 133//4 135//4 193//4
f 194//84 195//84 165//84
f 196//84 194//84 184//84
f 196//84 187//84 190//84
f 197//84 190//84 193//84
f 198//84 199//84 193//84
f 200//84 198//84 164//84
f 200//84 167//84 169//84
f 201//84 169//84 171//84
f 202//84 171//84 173//84
f 203//84 173//84 175//84
f 204//84 205//84 175//84
f 204//84 177//84 179//84
f 206//84 207//84 179//84
f 208//84 206//84 181//84
f 209//84 208//84 183//84
f 209//84 186//84 189//84
f 210//84 211//84 189//84
f 212//84 210//84 192//84
f 213//84 212//84 163//84
f 214//84 213//84 166//84
f 215//84 214//84 168//84
f 215//84 170//84 172//84
f 160//84 216//84 172//84
f 162//84 160//84 174//84
f 217//84 162//84 176//84
f 218//84 217//84 178//84
f 218//84 180//84 182//84
f 219//84 220//84 182//84
f 221//84 219//84 185//84
f 222//84 221//84 188//84
f 222//84 191//84 63//84
f 195//84 223//84 63//84
f 205//11 204//11 224//11
f 162//25 217//25 225//25
f 204//12 207//12 226//12
f 217//26 218//26 227//26
f 207//13 206//13 228//13
f 218//27 220//27 229//27
f 206//14 208//14 230//14
f 195//1 194//1 231//1
f 220//28 219//28 232//28
f 208//15 209//15 233//15
f 196//2 234//2 231//2
f 219//29 221//29 235//29
f 209//16 211//16 236//16
f 197//3 237//3 234//3
f 222//30 238//30 235//30
f 211//17 210//17 239//17
f 197//4 199//4 240//4
f 222//31 223//31 241//31
f 210//18 212//18 242//18
f 199//5 198//5 243//5
f 223//32 195//32 244//32
f 212//19 213//19 245//19
f 198//6 200//6 246//6
f 213//20 214//20 247//20
f 200//7 201//7 248//7
f 214//21 215//21 249//21
f 201//8 202//8 250//8
f 215//22 216//22 251//22
f 202//9 203//9 252//9
f 216//23 160//23 253//23
f 203//10 205//10 254//10
f 231//85 234//85 128//85
f 234//86 237//86 128//86
f 237//87 240//87 128//87
f 240//88 243//88 128//88
f 243//89 246//89 128//89
f 246//90 248//90 128//90
f 248//91 250//91 128//91
f 250//92 129//92 128//92
f 252//93 254//93 129//93
f 254//94 224//94 129//94
f 224//95 226//95 129//95
f 226//96 228//96 129//96
f 228//97 230//97 129//97
f 230//98 233//98 129//98
f 233//99 236//99 129//99
f 129//100 239//100 108//100
f 239//101 242//101 108//101
f 242//102 245//102 108//102
f 245//103 247//103 108//103
f 247//104 249//104 108//104
f 249//105 251//105 108//105
f 251//106 253//106 108//106
f 253//107 161//107 108//107
f 161//108 107//108 108//108
f 225//109 227//109 107//109
f 227//110 229//110 107//110
f 229//111 232//111 107//111
f 232//112 235//112 107//112
f 235//113 238//113 107//113
f 238//114 241//114 107//114
f 107//115 241//115 128//115
f 252//116 129//116 250//116
f 236//117 239//117 129//117
f 225//118 107//118 161//118
f 231//119 128//119 244//119
f 128//120 241//120 244//120
f 116//121 74//122 112//123
f 74//122 116//121 120//124
f 118//125 121//125 120//125
f 68//126 75//126 76//126
f 101//127 70//127 68//127
f 76//35 124//35 97//35
f 124//35 73//35 109//35
f 109//35 73//35 71//35
f 113//35 110//35 71//35
f 77//128 109//128 110//128
f 98//40 123//40 84//40
f 127//40 86//40 123//40
f 111//129 127//129 89//129
f 85//40 111//40 114//40
f 85//40 86//40 127//40
f 96//130 104//130 95//130
f 103//130 104//130 96//130
f 126//130 103//130 105//130
f 119//131 125//131 122//131
f 119//132 126//133 88//134
f 95//130 104//130 100//130
f 1//1 2//1 4//1
f 4//2 5//2 6//2
f 6//3 7//3 8//3
f 8//4 9//4 10//4
f 10//5 11//5 12//5
f 12//6 13//6 14//6
f 14//7 15//7 16//7
f 16//8 17//8 18//8
f 18//9 19//9 20//9
f 20//10 21//10 22//10
f 22//11 23//11 24//11
f 24//12 25//12 26//12
f 26//13 27//13 28//13
f 28//14 29//14 30//14
f 30//15 31//15 32//15
f 32//16 33//16 34//16
f 34//17 35//17 36//17
f 36//18 37//18 38//18
f 38//19 39//19 40//19
f 40//20 41//20 42//20
f 42//21 43//21 44//21
f 44//22 45//22 46//22
f 46//23 47//23 48//23
f 48//24 49//24 50//24
f 50//25 51//25 52//25
f 52//26 53//26 54//26
f 54//27 55//27 56//27
f 56//28 57//28 58//28
f 58//29 59//29 60//29
f 60//30 61//30 67//30
f 62//31 63//31 191//31
f 65//32 3//32 1//32
f 67//31 66//31 65//31
f 66//33 2//33 3//33
f 2//33 66//33 5//33
f 7//33 15//33 9//33
f 11//33 15//33 13//33
f 15//33 19//33 17//33
f 19//33 15//33 21//33
f 23//33 31//33 25//33
f 27//33 31//33 29//33
f 31//33 35//33 33//33
f 35//33 31//33 37//33
f 39//33 43//33 41//33
f 43//33 47//33 45//33
f 47//33 51//33 49//33
f 51//33 55//33 53//33
f 55//33 59//33 57//33
f 59//33 66//33 61//33
f 66//33 7//33 5//33
f 9//33 15//33 11//33
f 15//33 23//33 21//33
f 25//33 31//33 27//33
f 31//33 39//33 37//33
f 39//33 47//33 43//33
f 47//33 55//33 51//33
f 55//33 66//33 59//33
f 66//33 31//33 7//33
f 15//33 31//33 23//33
f 31//33 47//33 39//33
f 47//33 66//33 55//33
f 7//33 31//33 15//33
f 68//135 69//135 106//135
f 74//136 75//136 112//136
f 80//137 81//137 93//137
f 83//138 88//138 105//138
f 80//139 92//139 84//139
f 94//44 95//44 99//44
f 97//45 92//45 101//45
f 99//44 100//44 115//140
f 101//46 93//46 70//46
f 102//47 103//47 117//47
f 70//48 81//48 69//48
f 75//49 105//49 112//49
f 106//50 107//52 82//141
f 109//53 89//53 127//53
f 74//54 84//54 76//54
f 68//55 82//55 80//55
f 79//56 91//56 78//56
f 77//58 91//59 89//59
f 75//60 80//60 83//60
f 110//61 90//61 79//61
f 112//62 96//62 94//62
f 113//63 111//63 110//63
f 115//64 104//64 102//64
f 71//65 114//65 113//65
f 116//66 103//67 126//67
f 72//68 85//68 71//68
f 118//69 119//69 122//69
f 72//70 86//70 87//70
f 121//71 122//71 125//71
f 73//72 123//73 86//73
f 121//75 88//75 74//75
f 124//76 84//76 123//76
f 94//74 117//74 112//74
f 116//77 119//77 120//77
f 109//78 98//78 97//78
f 82//142 128//142 81//142
f 81//80 129//82 69//143
f 106//144 129//144 108//144
f 130//84 4//84 132//84
f 131//84 4//84 6//84
f 131//84 8//84 133//84
f 133//84 10//84 135//84
f 134//84 10//84 12//84
f 136//84 12//84 14//84
f 137//84 14//84 16//84
f 138//84 16//84 18//84
f 139//84 18//84 20//84
f 140//84 20//84 22//84
f 141//84 22//84 24//84
f 142//84 24//84 26//84
f 143//84 26//84 28//84
f 144//84 28//84 30//84
f 144//84 32//84 146//84
f 145//84 32//84 34//84
f 147//84 34//84 36//84
f 147//84 38//84 149//84
f 148//84 38//84 40//84
f 148//84 42//84 151//84
f 150//84 42//84 44//84
f 150//84 46//84 153//84
f 152//84 46//84 48//84
f 152//84 50//84 154//84
f 154//84 52//84 156//84
f 155//84 52//84 54//84
f 155//84 56//84 158//84
f 157//84 56//84 58//84
f 157//84 60//84 159//84
f 62//84 60//84 67//84
f 62//84 65//84 64//84
f 130//84 65//84 1//84
f 160//24 161//24 253//24
f 147//18 163//18 192//18
f 135//5 164//5 193//5
f 64//32 165//32 63//32
f 149//19 166//19 163//19
f 134//6 167//6 164//6
f 148//20 168//20 166//20
f 136//7 169//7 167//7
f 151//21 170//21 168//21
f 137//8 171//8 169//8
f 150//22 172//22 170//22
f 138//9 173//9 171//9
f 153//23 174//23 172//23
f 139//10 175//10 173//10
f 152//24 176//24 174//24
f 140//11 177//11 175//11
f 154//25 178//25 176//25
f 141//12 179//12 177//12
f 156//26 180//26 178//26
f 142//13 181//13 179//13
f 155//27 182//27 180//27
f 143//14 183//14 181//14
f 130//1 184//1 165//1
f 158//28 185//28 182//28
f 144//15 186//15 183//15
f 132//2 187//2 184//2
f 157//29 188//29 185//29
f 146//16 189//16 186//16
f 131//3 190//3 187//3
f 159//30 191//30 188//30
f 145//17 192//17 189//17
f 133//4 193//4 190//4
f 194//84 165//84 184//84
f 196//84 184//84 187//84
f 196//84 190//84 197//84
f 197//84 193//84 199//84
f 198//84 193//84 164//84
f 200//84 164//84 167//84
f 200//84 169//84 201//84
f 201//84 171//84 202//84
f 202//84 173//84 203//84
f 203//84 175//84 205//84
f 204//84 175//84 177//84
f 204//84 179//84 207//84
f 206//84 179//84 181//84
f 208//84 181//84 183//84
f 209//84 183//84 186//84
f 209//84 189//84 211//84
f 210//84 189//84 192//84
f 212//84 192//84 163//84
f 213//84 163//84 166//84
f 214//84 166//84 168//84
f 215//84 168//84 170//84
f 215//84 172//84 216//84
f 160//84 172//84 174//84
f 162//84 174//84 176//84
f 217//84 176//84 178//84
f 218//84 178//84 180//84
f 218//84 182//84 220//84
f 219//84 182//84 185//84
f 221//84 185//84 188//84
f 222//84 188//84 191//84
f 222//84 63//84 223//84
f 195//84 63//84 165//84
f 205//11 224//11 254//11
f 162//25 225//25 161//25
f 204//12 226//12 224//12
f 217//26 227//26 225//26
f 207//13 228//13 226//13
f 218//27 229//27 227//27
f 206//14 230//14 228//14
f 195//1 231//1 244//1
f 220//28 232//28 229//28
f 208//15 233//15 230//15
f 196//2 231//2 194//2
f 219//29 235//29 232//29
f 209//16 236//16 233//16
f 197//3 234//3 196//3
f 222//30 235//30 221//30
f 211//17 239//17 236//17
f 197//4 240//4 237//4
f 222//31 241//31 238//31
f 210//18 242//18 239//18
f 199//5 243//5 240//5
f 223//32 244//32 241//32
f 212//19 245//19 242//19
f 198//6 246//6 243//6
f 213//20 247//20 245//20
f 200//7 248//7 246//7
f 214//21 249//21 247//21
f 201//8 250//8 248//8
f 215//22 251//22 249//22
f 202//9 252//9 250//9
f 216//23 253//23 251//23
f 203//10 254//10 252//10
f 116//74 112//74 117//74
f 74//125 120//125 121//125
f 101//145 68//145 76//145
f 76//35 97//35 101//35
f 124//35 109//35 97//35
f 109//35 71//35 110//35
f 77//146 110//146 79//146
f 98//40 84//40 92//40
f 127//40 123//40 98//40
f 111//147 89//147 90//147
f 85//40 127//40 111//40
f 103//130 96//130 105//130
f 126//133 105//148 88//134
f 119//131 88//131 125//131
