# Blender v2.75 (sub 0) OBJ File: '3d-chess-pieces.blend'
# www.blender.org
o Unicorn_Cylinder.007
v -0.285080 0.100000 0.560593
v -0.039256 0.100000 0.758705
v -0.039256 0.100000 0.826864
v 0.043670 0.100000 0.751890
v 0.127732 0.100000 0.738258
v 0.195890 0.100000 0.682596
v 0.237921 0.100000 0.576951
v 0.256096 0.100000 0.478121
v 0.260186 0.100000 0.323629
v 0.201797 0.100000 0.323629
v 0.134547 0.100000 0.242976
v -0.098326 0.100000 0.242976
v -0.176935 0.100000 0.347939
v -0.064247 0.100000 0.427003
v 0.000503 0.100000 0.498569
v 0.015043 0.100000 0.541508
v -0.040392 0.100000 0.503113
v -0.138085 0.100000 0.504248
v -0.183524 0.100000 0.474713
v -0.221011 0.100000 0.473577
v -0.283489 0.100000 0.534920
v 0.228946 0.100000 0.400875
v -0.285080 -0.100000 0.560593
v -0.039256 -0.100000 0.758705
v -0.039256 -0.100000 0.826864
v 0.043670 -0.100000 0.751890
v 0.127732 -0.100000 0.738258
v 0.195890 -0.100000 0.682596
v 0.237921 -0.100000 0.576951
v 0.256096 -0.100000 0.478121
v 0.260186 -0.100000 0.323629
v 0.201797 -0.100000 0.323629
v 0.134547 -0.100000 0.242976
v -0.098326 -0.100000 0.242976
v -0.176935 -0.100000 0.347939
v -0.064247 -0.100000 0.427003
v 0.000503 -0.100000 0.498569
v 0.015043 -0.100000 0.541508
v -0.040392 -0.100000 0.503113
v -0.138085 -0.100000 0.504248
v -0.183524 -0.100000 0.474713
v -0.221011 -0.100000 0.473577
v -0.283489 -0.100000 0.534920
v 0.228946 -0.100000 0.400875
v 0.000000 0.375000 0.000000
v -0.000000 0.246753 0.050000
v 0.073159 0.367794 0.000000
v 0.048139 0.242012 0.050000
v 0.143506 0.346455 0.000000
v 0.094428 0.227970 0.050000
v 0.208339 0.311801 0.000000
v 0.137089 0.205168 0.050000
v 0.265165 0.265165 0.000000
v 0.174481 0.174481 0.050000
v 0.311801 0.208339 0.000000
v 0.205168 0.137089 0.050000
v 0.346455 0.143506 0.000000
v 0.227970 0.094428 0.050000
v 0.367794 0.073159 0.000000
v 0.242012 0.048139 0.050000
v 0.375000 -0.000000 0.000000
v 0.246753 -0.000000 0.050000
v 0.367794 -0.073159 0.000000
v 0.242012 -0.048139 0.050000
v 0.346455 -0.143506 0.000000
v 0.227970 -0.094428 0.050000
v 0.311801 -0.208339 0.000000
v 0.205168 -0.137089 0.050000
v 0.265165 -0.265165 0.000000
v 0.174481 -0.174481 0.050000
v 0.208339 -0.311801 0.000000
v 0.137089 -0.205168 0.050000
v 0.143506 -0.346455 0.000000
v 0.094428 -0.227970 0.050000
v 0.073159 -0.367795 0.000000
v 0.048139 -0.242012 0.050000
v -0.000000 -0.375000 0.000000
v -0.000000 -0.246753 0.050000
v -0.073159 -0.367795 0.000000
v -0.048139 -0.242012 0.050000
v -0.143506 -0.346455 0.000000
v -0.094428 -0.227970 0.050000
v -0.208339 -0.311801 0.000000
v -0.137089 -0.205168 0.050000
v -0.265165 -0.265165 0.000000
v -0.174481 -0.174481 0.050000
v -0.311801 -0.208339 0.000000
v -0.205168 -0.137089 0.050000
v -0.346455 -0.143506 0.000000
v -0.227970 -0.094428 0.050000
v -0.367795 -0.073159 0.000000
v -0.242012 -0.048139 0.050000
v -0.375000 0.000000 0.000000
v -0.246753 0.000000 0.050000
v -0.367794 0.073159 0.000000
v -0.242012 0.048139 0.050000
v -0.346455 0.143507 0.000000
v -0.227970 0.094428 0.050000
v -0.311801 0.208339 0.000000
v -0.205168 0.137089 0.050000
v -0.265165 0.265165 0.000000
v -0.174481 0.174481 0.050000
v -0.208338 0.311801 0.000000
v -0.137088 0.205168 0.050000
v -0.143506 0.346455 0.000000
v -0.094428 0.227970 0.050000
v -0.073158 0.367794 0.000000
v -0.048139 0.242012 0.050000
v 0.073159 0.367794 0.050000
v -0.000000 0.375000 0.050000
v 0.143506 0.346455 0.050000
v 0.208339 0.311801 0.050000
v 0.265165 0.265165 0.050000
v 0.311801 0.208339 0.050000
v 0.346455 0.143506 0.050000
v 0.367794 0.073159 0.050000
v 0.375000 -0.000000 0.050000
v 0.367794 -0.073159 0.050000
v 0.346455 -0.143506 0.050000
v 0.311801 -0.208339 0.050000
v 0.265165 -0.265165 0.050000
v 0.208339 -0.311801 0.050000
v 0.143506 -0.346455 0.050000
v 0.073159 -0.367795 0.050000
v -0.000000 -0.375000 0.050000
v -0.073159 -0.367795 0.050000
v -0.143506 -0.346455 0.050000
v -0.208339 -0.311801 0.050000
v -0.265165 -0.265165 0.050000
v -0.311801 -0.208339 0.050000
v -0.346455 -0.143506 0.050000
v -0.367795 -0.073159 0.050000
v -0.375000 0.000000 0.050000
v -0.367794 0.073159 0.050000
v -0.346455 0.143507 0.050000
v -0.311801 0.208339 0.050000
v -0.265165 0.265165 0.050000
v -0.208338 0.311801 0.050000
v -0.143506 0.346455 0.050000
v -0.073158 0.367794 0.050000
v 0.048139 0.242012 0.117607
v -0.000000 0.246753 0.117607
v 0.094428 0.227970 0.117607
v 0.137089 0.205168 0.117607
v 0.174481 0.174481 0.117607
v 0.205168 0.137089 0.117607
v 0.227970 0.094428 0.117607
v 0.242012 0.048139 0.117607
v 0.246753 -0.000000 0.117607
v 0.242012 -0.048139 0.117607
v 0.227970 -0.094428 0.117607
v 0.205168 -0.137089 0.117607
v 0.174481 -0.174481 0.117607
v 0.137089 -0.205168 0.117607
v 0.094428 -0.227970 0.117607
v 0.048139 -0.242012 0.117607
v -0.000000 -0.246753 0.117607
v -0.048139 -0.242012 0.117607
v -0.094428 -0.227970 0.117607
v -0.137089 -0.205168 0.117607
v -0.174481 -0.174481 0.117607
v -0.205168 -0.137089 0.117607
v -0.227970 -0.094428 0.117607
v -0.242012 -0.048139 0.117607
v -0.246753 0.000000 0.117607
v -0.242012 0.048139 0.117607
v -0.227970 0.094428 0.117607
v -0.205168 0.137089 0.117607
v -0.174481 0.174481 0.117607
v -0.137088 0.205168 0.117607
v -0.094428 0.227970 0.117607
v -0.048139 0.242012 0.117607
v 0.040472 0.203468 0.117607
v -0.000000 0.207455 0.117607
v 0.079389 0.191663 0.117607
v 0.115256 0.172492 0.117607
v 0.146693 0.146692 0.117607
v 0.172492 0.115256 0.117607
v 0.191663 0.079389 0.117607
v 0.203468 0.040472 0.117607
v 0.207455 -0.000000 0.117607
v 0.203468 -0.040472 0.117607
v 0.191663 -0.079389 0.117607
v 0.172492 -0.115256 0.117607
v 0.146693 -0.146693 0.117607
v 0.115256 -0.172492 0.117607
v 0.079389 -0.191663 0.117607
v 0.040472 -0.203469 0.117607
v -0.000000 -0.207455 0.117607
v -0.040473 -0.203468 0.117607
v -0.079390 -0.191663 0.117607
v -0.115256 -0.172492 0.117607
v -0.146693 -0.146693 0.117607
v -0.172492 -0.115256 0.117607
v -0.191663 -0.079389 0.117607
v -0.203469 -0.040472 0.117607
v -0.207455 0.000000 0.117607
v -0.203468 0.040473 0.117607
v -0.191663 0.079390 0.117607
v -0.172492 0.115256 0.117607
v -0.146692 0.146693 0.117607
v -0.115255 0.172492 0.117607
v -0.079389 0.191663 0.117607
v -0.040472 0.203468 0.117607
v 0.040472 0.203468 0.222614
v -0.000000 0.207455 0.222614
v 0.079389 0.191663 0.222614
v 0.115256 0.172492 0.222614
v 0.146693 0.146692 0.222614
v 0.172492 0.115256 0.222614
v 0.191663 0.079389 0.222614
v 0.203468 0.040472 0.222614
v 0.207455 -0.000000 0.222614
v 0.203468 -0.040472 0.222614
v 0.191663 -0.079389 0.222614
v 0.172492 -0.115256 0.222614
v 0.146693 -0.146693 0.222614
v 0.115256 -0.172492 0.222614
v 0.079389 -0.191663 0.222614
v 0.040472 -0.203469 0.222614
v -0.000000 -0.207455 0.222614
v -0.040473 -0.203468 0.222614
v -0.079390 -0.191663 0.222614
v -0.115256 -0.172492 0.222614
v -0.146693 -0.146693 0.222614
v -0.172492 -0.115256 0.222614
v -0.191663 -0.079389 0.222614
v -0.203469 -0.040472 0.222614
v -0.207455 0.000000 0.222614
v -0.203468 0.040473 0.222614
v -0.191663 0.079390 0.222614
v -0.172492 0.115256 0.222614
v -0.146692 0.146693 0.222614
v -0.115255 0.172492 0.222614
v -0.079389 0.191663 0.222614
v -0.040472 0.203468 0.222614
v -0.159100 0.100000 0.662122
v -0.077159 0.100000 0.728159
v -0.159100 -0.100000 0.662122
v -0.077159 -0.100000 0.728159
v -0.286817 0.100000 0.878829
v -0.286817 -0.100000 0.878829
vn 0.000000 1.000000 0.000000
vn 0.000000 -1.000000 -0.000000
vn -0.741500 0.000000 0.670900
vn 0.983500 0.000000 0.180900
vn -0.947200 -0.000000 0.320700
vn 0.999600 0.000000 0.026500
vn -0.627500 0.000000 0.778600
vn 0.569400 0.000000 -0.822100
vn 0.000000 -0.000000 -1.000000
vn -1.000000 -0.000000 0.000000
vn -0.011600 -0.000000 -0.999900
vn 0.768000 -0.000000 -0.640400
vn 0.670600 0.000000 0.741800
vn 0.545000 0.000000 -0.838400
vn 0.160100 0.000000 0.987100
vn 0.030300 0.000000 -0.999500
vn -0.800400 -0.000000 -0.599400
vn 0.632500 0.000000 0.774500
vn -0.700600 0.000000 -0.713600
vn -0.574300 0.000000 0.818600
vn 0.929200 0.000000 0.369700
vn -0.998100 0.000000 -0.061800
vn 0.098000 0.995200 0.000000
vn 0.290300 0.956900 0.000000
vn 0.471400 0.881900 0.000000
vn 0.634400 0.773000 0.000000
vn 0.773000 0.634400 0.000000
vn 0.881900 0.471400 0.000000
vn 0.956900 0.290300 0.000000
vn 0.995200 0.098000 0.000000
vn 0.995200 -0.098000 0.000000
vn 0.956900 -0.290300 0.000000
vn 0.881900 -0.471400 0.000000
vn 0.773000 -0.634400 0.000000
vn 0.634400 -0.773000 0.000000
vn 0.471400 -0.881900 0.000000
vn 0.290300 -0.956900 -0.000000
vn 0.098000 -0.995200 -0.000000
vn -0.098000 -0.995200 -0.000000
vn -0.290300 -0.956900 0.000000
vn -0.471400 -0.881900 -0.000000
vn -0.634400 -0.773000 -0.000000
vn -0.773000 -0.634400 -0.000000
vn -0.881900 -0.471400 -0.000000
vn -0.956900 -0.290300 -0.000000
vn -0.995200 -0.098000 -0.000000
vn -0.995200 0.098000 -0.000000
vn -0.956900 0.290300 -0.000000
vn -0.881900 0.471400 -0.000000
vn -0.773000 0.634400 -0.000000
vn -0.634400 0.773000 -0.000000
vn -0.471400 0.881900 0.000000
vn -0.098000 0.995200 0.000000
vn -0.290300 0.956900 -0.000000
vn 0.000000 0.000000 1.000000
vn 0.079300 0.261400 0.962000
vn 0.164100 0.307000 0.937500
vn 0.267400 0.325900 0.906800
vn 0.357700 0.293500 0.886500
vn 0.394900 0.211100 0.894100
vn 0.369300 0.112000 0.922500
vn 0.307100 0.030300 0.951200
vn 0.269000 0.000000 0.963100
vn 0.369300 -0.112000 0.922500
vn 0.394900 -0.211100 0.894100
vn 0.357700 -0.293600 0.886500
vn 0.267400 -0.325900 0.906800
vn 0.164100 -0.307000 0.937500
vn 0.079300 -0.261400 0.962000
vn 0.000000 -0.193100 0.981200
vn -0.069800 -0.230000 0.970700
vn -0.128400 -0.240300 0.962200
vn -0.185000 -0.225500 0.956500
vn -0.224700 -0.184400 0.956800
vn -0.238200 -0.127300 0.962800
vn -0.227100 -0.068900 0.971400
vn -0.200900 -0.019800 0.979400
vn -0.183400 0.000000 0.983000
vn -0.227100 0.068900 0.971400
vn -0.238200 0.127300 0.962800
vn -0.224700 0.184400 0.956800
vn -0.185000 0.225500 0.956500
vn -0.128400 0.240300 0.962200
vn -0.069800 0.230000 0.970700
vn -0.020100 0.203800 0.978800
vn 0.000000 0.193100 0.981200
vn 0.307100 -0.030300 0.951200
vn -0.020100 -0.203800 0.978800
vn -0.200900 0.019800 0.979400
vn 0.016900 0.171200 0.985100
vn 0.016900 -0.171200 0.985100
vn -0.861500 0.000000 -0.507700
vn 0.583600 0.000000 0.812100
s off
f 10//1 11//1 12//1
f 9//1 10//1 22//1
f 1//1 19//1 20//1
f 3//1 4//1 2//1
f 1//1 18//1 19//1
f 18//1 1//1 237//1
f 16//1 17//1 18//1
f 4//1 16//1 2//1
f 5//1 16//1 4//1
f 6//1 16//1 5//1
f 7//1 16//1 6//1
f 8//1 15//1 16//1
f 22//1 14//1 15//1
f 10//1 13//1 14//1
f 32//2 35//2 34//2
f 44//2 32//2 31//2
f 23//2 43//2 42//2
f 25//2 24//2 26//2
f 23//2 41//2 40//2
f 240//2 239//2 40//2
f 40//2 39//2 38//2
f 26//2 24//2 38//2
f 27//2 26//2 38//2
f 28//2 27//2 38//2
f 29//2 28//2 38//2
f 30//2 29//2 38//2
f 44//2 30//2 37//2
f 32//2 44//2 36//2
f 14//3 36//3 37//3
f 7//4 29//4 30//4
f 15//5 37//5 38//5
f 8//6 30//6 31//6
f 237//7 1//7 23//7
f 16//8 38//8 39//8
f 9//9 31//9 32//9
f 2//10 24//10 25//10
f 17//11 39//11 40//11
f 10//12 32//12 33//12
f 3//13 25//13 26//13
f 18//14 40//14 41//14
f 4//15 26//15 27//15
f 19//16 41//16 42//16
f 12//17 34//17 35//17
f 5//18 27//18 28//18
f 20//19 42//19 43//19
f 13//20 35//20 36//20
f 6//21 28//21 29//21
f 21//22 43//22 23//22
f 45//23 110//23 109//23
f 47//24 109//24 111//24
f 49//25 111//25 112//25
f 51//26 112//26 113//26
f 113//27 114//27 55//27
f 55//28 114//28 115//28
f 57//29 115//29 116//29
f 116//30 117//30 61//30
f 117//31 118//31 63//31
f 118//32 119//32 65//32
f 119//33 120//33 67//33
f 120//34 121//34 69//34
f 121//35 122//35 71//35
f 122//36 123//36 73//36
f 123//37 124//37 75//37
f 124//38 125//38 77//38
f 125//39 126//39 79//39
f 126//40 127//40 81//40
f 127//41 128//41 83//41
f 128//42 129//42 85//42
f 129//43 130//43 87//43
f 130//44 131//44 89//44
f 131//45 132//45 91//45
f 132//46 133//46 93//46
f 133//47 134//47 95//47
f 95//48 134//48 135//48
f 97//49 135//49 136//49
f 99//50 136//50 137//50
f 101//51 137//51 138//51
f 103//52 138//52 139//52
f 94//47 165//47 166//47
f 107//53 140//53 110//53
f 105//54 139//54 140//54
f 45//9 61//9 77//9
f 48//55 109//55 110//55
f 50//55 111//55 109//55
f 52//55 112//55 111//55
f 54//55 113//55 112//55
f 56//55 114//55 113//55
f 56//55 58//55 115//55
f 60//55 116//55 115//55
f 62//55 117//55 116//55
f 64//55 118//55 117//55
f 66//55 119//55 118//55
f 68//55 120//55 119//55
f 70//55 121//55 120//55
f 72//55 122//55 121//55
f 74//55 123//55 122//55
f 76//55 124//55 123//55
f 78//55 125//55 124//55
f 80//55 126//55 125//55
f 80//55 82//55 127//55
f 84//55 128//55 127//55
f 86//55 129//55 128//55
f 88//55 130//55 129//55
f 88//55 90//55 131//55
f 92//55 132//55 131//55
f 94//55 133//55 132//55
f 94//55 96//55 134//55
f 98//55 135//55 134//55
f 100//55 136//55 135//55
f 100//55 102//55 137//55
f 104//55 138//55 137//55
f 104//55 106//55 139//55
f 108//55 140//55 139//55
f 108//55 46//55 110//55
f 142//55 174//55 173//55
f 68//34 152//34 153//34
f 96//48 166//48 167//48
f 70//35 153//35 154//35
f 98//49 167//49 168//49
f 72//36 154//36 155//36
f 46//23 142//23 141//23
f 100//50 168//50 169//50
f 74//37 155//37 156//37
f 48//24 141//24 143//24
f 102//51 169//51 170//51
f 76//38 156//38 157//38
f 50//25 143//25 144//25
f 104//52 170//52 171//52
f 78//39 157//39 158//39
f 52//26 144//26 145//26
f 106//54 171//54 172//54
f 80//40 158//40 159//40
f 54//27 145//27 146//27
f 108//53 172//53 142//53
f 82//41 159//41 160//41
f 56//28 146//28 147//28
f 84//42 160//42 161//42
f 58//29 147//29 148//29
f 86//43 161//43 162//43
f 60//30 148//30 149//30
f 88//44 162//44 163//44
f 62//31 149//31 150//31
f 90//45 163//45 164//45
f 64//32 150//32 151//32
f 92//46 164//46 165//46
f 66//33 151//33 152//33
f 176//26 208//26 209//26
f 169//55 168//55 200//55
f 156//55 155//55 187//55
f 141//55 173//55 175//55
f 170//55 169//55 201//55
f 157//55 156//55 188//55
f 143//55 175//55 176//55
f 171//55 170//55 202//55
f 157//55 189//55 190//55
f 145//55 144//55 176//55
f 171//55 203//55 204//55
f 159//55 158//55 190//55
f 145//55 177//55 178//55
f 142//55 172//55 204//55
f 159//55 191//55 192//55
f 146//55 178//55 179//55
f 160//55 192//55 193//55
f 147//55 179//55 180//55
f 162//55 161//55 193//55
f 148//55 180//55 181//55
f 163//55 162//55 194//55
f 149//55 181//55 182//55
f 163//55 195//55 196//55
f 150//55 182//55 183//55
f 164//55 196//55 197//55
f 151//55 183//55 184//55
f 166//55 165//55 197//55
f 152//55 184//55 185//55
f 166//55 198//55 199//55
f 153//55 185//55 186//55
f 167//55 199//55 200//55
f 154//55 186//55 187//55
f 203//54 235//54 236//54
f 190//40 222//40 223//40
f 177//27 209//27 210//27
f 204//53 236//53 206//53
f 191//41 223//41 224//41
f 178//28 210//28 211//28
f 192//42 224//42 225//42
f 179//29 211//29 212//29
f 193//43 225//43 226//43
f 180//30 212//30 213//30
f 194//44 226//44 227//44
f 181//31 213//31 214//31
f 195//45 227//45 228//45
f 182//32 214//32 215//32
f 196//46 228//46 229//46
f 183//33 215//33 216//33
f 197//47 229//47 230//47
f 184//34 216//34 217//34
f 198//48 230//48 231//48
f 185//35 217//35 218//35
f 199//49 231//49 232//49
f 186//36 218//36 219//36
f 174//23 206//23 205//23
f 200//50 232//50 233//50
f 187//37 219//37 220//37
f 173//24 205//24 207//24
f 201//51 233//51 234//51
f 188//38 220//38 221//38
f 175//25 207//25 208//25
f 202//52 234//52 235//52
f 189//39 221//39 222//39
f 205//56 11//56 207//56
f 207//57 11//57 208//57
f 208//58 11//58 209//58
f 209//59 11//59 210//59
f 210//60 11//60 211//60
f 211//61 11//61 212//61
f 212//62 11//62 213//62
f 213//63 11//63 33//63
f 214//64 33//64 215//64
f 215//65 33//65 216//65
f 216//66 33//66 217//66
f 217//67 33//67 218//67
f 218//68 33//68 219//68
f 219//69 33//69 220//69
f 33//70 34//70 220//70
f 222//71 34//71 223//71
f 223//72 34//72 224//72
f 224//73 34//73 225//73
f 225//74 34//74 226//74
f 226//75 34//75 227//75
f 227//76 34//76 228//76
f 228//77 34//77 229//77
f 229//78 34//78 12//78
f 230//79 12//79 231//79
f 231//80 12//80 232//80
f 232//81 12//81 233//81
f 233//82 12//82 234//82
f 234//83 12//83 235//83
f 235//84 12//84 236//84
f 236//85 12//85 206//85
f 12//86 11//86 205//86
f 214//87 213//87 33//87
f 222//88 221//88 34//88
f 230//89 229//89 12//89
f 206//90 12//90 205//90
f 34//91 221//91 220//91
f 2//7 238//7 240//7
f 239//92 242//92 241//92
f 239//2 240//2 242//2
f 238//1 237//1 241//1
f 238//93 241//93 242//93
f 13//1 10//1 12//1
f 8//1 9//1 22//1
f 21//1 1//1 20//1
f 18//1 237//1 238//1
f 238//1 2//1 18//1
f 2//1 16//1 18//1
f 7//1 8//1 16//1
f 8//1 22//1 15//1
f 22//1 10//1 14//1
f 33//2 32//2 34//2
f 30//2 44//2 31//2
f 41//2 23//2 42//2
f 239//2 23//2 40//2
f 40//2 24//2 240//2
f 24//2 40//2 38//2
f 37//2 30//2 38//2
f 36//2 44//2 37//2
f 35//2 32//2 36//2
f 15//3 14//3 37//3
f 8//4 7//4 30//4
f 16//5 15//5 38//5
f 9//6 8//6 31//6
f 239//7 237//7 23//7
f 17//8 16//8 39//8
f 10//9 9//9 32//9
f 3//10 2//10 25//10
f 18//11 17//11 40//11
f 11//12 10//12 33//12
f 4//13 3//13 26//13
f 19//14 18//14 41//14
f 5//15 4//15 27//15
f 20//16 19//16 42//16
f 13//17 12//17 35//17
f 6//18 5//18 28//18
f 21//19 20//19 43//19
f 14//20 13//20 36//20
f 7//21 6//21 29//21
f 1//22 21//22 23//22
f 47//23 45//23 109//23
f 49//24 47//24 111//24
f 51//25 49//25 112//25
f 53//26 51//26 113//26
f 53//27 113//27 55//27
f 57//28 55//28 115//28
f 59//29 57//29 116//29
f 59//30 116//30 61//30
f 61//31 117//31 63//31
f 63//32 118//32 65//32
f 65//33 119//33 67//33
f 67//34 120//34 69//34
f 69//35 121//35 71//35
f 71//36 122//36 73//36
f 73//37 123//37 75//37
f 75//38 124//38 77//38
f 77//39 125//39 79//39
f 79//40 126//40 81//40
f 81//41 127//41 83//41
f 83//42 128//42 85//42
f 85//43 129//43 87//43
f 87//44 130//44 89//44
f 89//45 131//45 91//45
f 91//46 132//46 93//46
f 93//47 133//47 95//47
f 97//48 95//48 135//48
f 99//49 97//49 136//49
f 101//50 99//50 137//50
f 103//51 101//51 138//51
f 105//52 103//52 139//52
f 96//47 94//47 166//47
f 45//53 107//53 110//53
f 107//54 105//54 140//54
f 105//9 107//9 45//9
f 101//9 103//9 105//9
f 97//9 99//9 101//9
f 93//9 95//9 97//9
f 89//9 91//9 93//9
f 85//9 87//9 89//9
f 81//9 83//9 85//9
f 77//9 79//9 81//9
f 73//9 75//9 77//9
f 77//9 71//9 73//9
f 65//9 67//9 69//9
f 61//9 63//9 65//9
f 57//9 59//9 61//9
f 53//9 55//9 57//9
f 49//9 51//9 53//9
f 45//9 47//9 49//9
f 93//9 105//9 45//9
f 93//9 97//9 101//9
f 85//9 89//9 93//9
f 77//9 81//9 85//9
f 69//9 71//9 77//9
f 77//9 65//9 69//9
f 45//9 57//9 61//9
f 45//9 49//9 53//9
f 93//9 101//9 105//9
f 77//9 85//9 93//9
f 61//9 65//9 77//9
f 45//9 53//9 57//9
f 77//9 93//9 45//9
f 46//55 48//55 110//55
f 48//55 50//55 109//55
f 50//55 52//55 111//55
f 52//55 54//55 112//55
f 54//55 56//55 113//55
f 114//55 56//55 115//55
f 58//55 60//55 115//55
f 60//55 62//55 116//55
f 62//55 64//55 117//55
f 64//55 66//55 118//55
f 66//55 68//55 119//55
f 68//55 70//55 120//55
f 70//55 72//55 121//55
f 72//55 74//55 122//55
f 74//55 76//55 123//55
f 76//55 78//55 124//55
f 78//55 80//55 125//55
f 126//55 80//55 127//55
f 82//55 84//55 127//55
f 84//55 86//55 128//55
f 86//55 88//55 129//55
f 130//55 88//55 131//55
f 90//55 92//55 131//55
f 92//55 94//55 132//55
f 133//55 94//55 134//55
f 96//55 98//55 134//55
f 98//55 100//55 135//55
f 136//55 100//55 137//55
f 102//55 104//55 137//55
f 138//55 104//55 139//55
f 106//55 108//55 139//55
f 140//55 108//55 110//55
f 141//55 142//55 173//55
f 70//34 68//34 153//34
f 98//48 96//48 167//48
f 72//35 70//35 154//35
f 100//49 98//49 168//49
f 74//36 72//36 155//36
f 48//23 46//23 141//23
f 102//50 100//50 169//50
f 76//37 74//37 156//37
f 50//24 48//24 143//24
f 104//51 102//51 170//51
f 78//38 76//38 157//38
f 52//25 50//25 144//25
f 106//52 104//52 171//52
f 80//39 78//39 158//39
f 54//26 52//26 145//26
f 108//54 106//54 172//54
f 82//40 80//40 159//40
f 56//27 54//27 146//27
f 46//53 108//53 142//53
f 84//41 82//41 160//41
f 58//28 56//28 147//28
f 86//42 84//42 161//42
f 60//29 58//29 148//29
f 88//43 86//43 162//43
f 62//30 60//30 149//30
f 90//44 88//44 163//44
f 64//31 62//31 150//31
f 92//45 90//45 164//45
f 66//32 64//32 151//32
f 94//46 92//46 165//46
f 68//33 66//33 152//33
f 177//26 176//26 209//26
f 201//55 169//55 200//55
f 188//55 156//55 187//55
f 143//55 141//55 175//55
f 202//55 170//55 201//55
f 189//55 157//55 188//55
f 144//55 143//55 176//55
f 203//55 171//55 202//55
f 158//55 157//55 190//55
f 177//55 145//55 176//55
f 172//55 171//55 204//55
f 191//55 159//55 190//55
f 146//55 145//55 178//55
f 174//55 142//55 204//55
f 160//55 159//55 192//55
f 147//55 146//55 179//55
f 161//55 160//55 193//55
f 148//55 147//55 180//55
f 194//55 162//55 193//55
f 149//55 148//55 181//55
f 195//55 163//55 194//55
f 150//55 149//55 182//55
f 164//55 163//55 196//55
f 151//55 150//55 183//55
f 165//55 164//55 197//55
f 152//55 151//55 184//55
f 198//55 166//55 197//55
f 153//55 152//55 185//55
f 167//55 166//55 199//55
f 154//55 153//55 186//55
f 168//55 167//55 200//55
f 155//55 154//55 187//55
f 204//54 203//54 236//54
f 191//40 190//40 223//40
f 178//27 177//27 210//27
f 174//53 204//53 206//53
f 192//41 191//41 224//41
f 179//28 178//28 211//28
f 193//42 192//42 225//42
f 180//29 179//29 212//29
f 194//43 193//43 226//43
f 181//30 180//30 213//30
f 195//44 194//44 227//44
f 182//31 181//31 214//31
f 196//45 195//45 228//45
f 183//32 182//32 215//32
f 197//46 196//46 229//46
f 184//33 183//33 216//33
f 198//47 197//47 230//47
f 185//34 184//34 217//34
f 199//48 198//48 231//48
f 186//35 185//35 218//35
f 200//49 199//49 232//49
f 187//36 186//36 219//36
f 173//23 174//23 205//23
f 201//50 200//50 233//50
f 188//37 187//37 220//37
f 175//24 173//24 207//24
f 202//51 201//51 234//51
f 189//38 188//38 221//38
f 176//25 175//25 208//25
f 203//52 202//52 235//52
f 190//39 189//39 222//39
f 24//7 2//7 240//7
f 237//92 239//92 241//92
f 240//93 238//93 242//93
